<?xml version="1.0" standalone="no"?>
<!DOCTYPE svg PUBLIC "-//W3C//DTD SVG 20010904//EN"
 "http://www.w3.org/TR/2001/REC-SVG-20010904/DTD/svg10.dtd">
<svg version="1.0" xmlns="http://www.w3.org/2000/svg"
 width="1024.000000pt" height="1024.000000pt" viewBox="0 0 1024.000000 1024.000000"
 preserveAspectRatio="xMidYMid meet">

<g transform="translate(0.000000,1024.000000) scale(0.100000,-0.100000)"
fill="#000000" stroke="none">
<path d="M1065 6616 c-101 -25 -181 -81 -233 -164 -65 -101 -62 -52 -62 -1182
0 -907 2 -1033 16 -1080 36 -122 133 -215 266 -255 45 -13 186 -15 1119 -15
743 0 1084 3 1121 11 124 26 245 124 290 237 l23 57 3 1005 c2 689 -1 1025 -8
1069 -27 159 -134 274 -295 316 -52 13 -198 15 -1125 14 -811 0 -1077 -4
-1115 -13z m2220 -205 c22 -10 55 -33 72 -51 66 -68 64 -23 61 -1106 l-3 -979
-22 -41 c-27 -50 -70 -88 -120 -106 -31 -10 -238 -13 -1093 -13 l-1056 0 -49
26 c-54 27 -89 70 -105 128 -15 54 -14 1962 1 2012 16 52 64 108 113 130 39
18 91 19 1101 19 1005 0 1062 -1 1100 -19z"/>
<path d="M1150 5280 l0 -650 85 0 85 0 1 393 0 392 100 -290 c55 -159 116
-336 136 -392 l35 -103 89 0 89 0 0 650 0 650 -85 0 -85 0 0 -412 0 -413 -109
325 c-60 179 -124 364 -141 413 l-32 87 -84 0 -84 0 0 -650z"/>
<path d="M2106 5918 c-3 -7 -16 -71 -31 -143 -14 -71 -47 -227 -71 -345 -49
-235 -164 -793 -164 -797 0 -2 40 -3 89 -3 77 0 90 3 95 18 2 9 17 78 31 152
14 74 29 143 31 153 5 15 19 17 115 17 130 0 114 20 154 -192 l27 -148 89 0
c49 0 89 4 89 9 0 5 -54 276 -120 603 -66 326 -123 607 -126 623 -13 68 -7 65
-110 65 -67 0 -96 -4 -98 -12z m144 -593 c17 -93 34 -180 37 -192 5 -23 3 -23
-84 -23 l-90 0 43 223 c24 122 44 224 45 227 2 9 18 -64 49 -235z"/>
<path d="M2620 5280 l0 -650 91 0 90 0 -3 390 c-2 214 0 386 3 382 3 -4 35
-97 72 -207 37 -110 96 -281 130 -380 l64 -180 91 -3 92 -3 0 651 0 650 -96 0
-96 0 3 -401 c3 -234 1 -388 -4 -368 -10 38 -208 633 -239 717 l-19 52 -90 0
-89 0 0 -650z"/>
<path d="M3990 5235 l0 -515 80 0 80 0 1 348 c0 208 4 339 9 327 5 -11 55
-132 111 -270 56 -137 116 -284 134 -325 l32 -75 82 -3 81 -3 0 516 0 515 -80
0 -80 0 -2 -322 c-2 -254 -5 -315 -14 -288 -6 19 -64 164 -129 323 l-118 287
-94 0 -93 0 0 -515z"/>
<path d="M5905 5738 c-2 -7 -25 -105 -50 -218 -26 -113 -75 -331 -111 -486
-35 -154 -64 -288 -64 -297 0 -15 13 -17 88 -17 l88 0 25 123 25 122 116 3
115 3 22 -93 c11 -51 24 -108 27 -125 l7 -33 94 0 c77 0 94 3 90 14 -3 8 -58
222 -122 477 -64 255 -120 481 -126 502 l-10 37 -105 0 c-75 0 -106 -4 -109
-12z m156 -424 c21 -99 39 -185 39 -191 0 -9 -23 -13 -80 -13 -63 0 -80 3 -80
14 0 8 16 87 35 176 19 89 35 171 35 182 0 46 13 3 51 -168z"/>
<path d="M6450 5235 l0 -515 80 0 80 0 1 343 c1 310 2 339 15 307 8 -19 72
-173 141 -342 l127 -308 83 0 83 0 0 515 0 515 -86 0 -85 0 3 -325 c2 -179 2
-325 2 -325 -1 0 -9 21 -19 48 -10 26 -46 115 -80 197 -35 83 -86 207 -115
278 l-52 127 -89 0 -89 0 0 -515z"/>
<path d="M8234 5740 c-32 -13 -64 -59 -64 -92 0 -75 111 -118 165 -63 37 36
35 97 -4 136 -30 29 -58 35 -97 19z"/>
<path d="M5417 5653 l-67 -25 4 -69 4 -69 -44 0 -44 0 0 -71 0 -71 43 4 42 3
5 -270 c4 -233 7 -274 23 -302 29 -55 73 -69 200 -65 l57 2 0 73 0 72 -44 -3
c-73 -6 -76 3 -76 268 l0 225 60 -3 60 -4 0 71 0 71 -60 0 -60 0 0 95 c0 111
3 108 -103 68z"/>
<path d="M7865 5655 l-60 -22 -3 -72 -3 -71 -39 0 -40 0 0 -71 0 -71 39 4 40
3 3 -270 c3 -260 4 -271 26 -306 12 -20 37 -43 55 -50 32 -14 186 -17 206 -4
6 3 11 35 11 70 l0 63 -44 -1 c-31 -1 -50 4 -65 17 -20 18 -21 28 -21 248 l0
228 65 0 65 0 0 70 0 70 -65 0 -65 0 0 95 c0 110 1 110 -105 70z"/>
<path d="M4871 5486 c-128 -46 -191 -196 -178 -426 7 -125 26 -194 70 -251 47
-62 110 -90 205 -91 126 -2 197 42 246 152 46 102 54 312 16 441 -13 45 -56
111 -92 138 -61 48 -188 66 -267 37z m148 -141 c47 -24 64 -81 68 -230 4 -158
-11 -217 -66 -249 -51 -30 -98 -14 -131 44 -22 40 -25 59 -28 172 -3 95 0 140
12 181 25 87 79 117 145 82z"/>
<path d="M7327 5486 c-84 -30 -142 -108 -168 -226 -14 -62 -13 -266 2 -326 24
-98 77 -170 147 -199 46 -20 178 -21 223 -2 118 49 169 163 169 375 0 220 -63
346 -191 382 -48 14 -137 12 -182 -4z m145 -140 c10 -7 28 -35 40 -62 20 -43
23 -66 23 -179 0 -187 -25 -245 -109 -245 -86 0 -111 56 -111 245 0 185 30
256 110 255 16 0 38 -7 47 -14z"/>
<path d="M8609 5486 c-140 -50 -203 -213 -179 -464 20 -215 99 -304 269 -305
129 0 205 51 253 173 20 49 22 74 22 215 0 144 -2 166 -23 220 -29 73 -98 145
-157 163 -53 15 -139 15 -185 -2z m156 -152 c38 -41 50 -96 50 -239 0 -112 -3
-137 -22 -177 -17 -38 -28 -48 -57 -56 -110 -31 -151 47 -144 272 4 140 16
179 60 210 35 25 85 20 113 -10z"/>
<path d="M9314 5486 c-17 -7 -45 -31 -62 -52 l-32 -39 0 48 0 47 -80 0 -80 0
0 -385 0 -385 85 0 84 0 3 284 c3 271 4 286 24 313 44 59 115 55 146 -7 16
-31 18 -68 18 -312 l0 -278 85 0 85 0 0 298 c0 168 -4 313 -10 333 -13 46 -47
96 -83 123 -35 26 -138 33 -183 12z"/>
<path d="M8180 5105 l0 -385 85 0 85 0 0 385 0 385 -85 0 -85 0 0 -385z"/>
</g>
</svg>
